<?xml version="1.0" encoding="UTF-8"?>
<svg version="1.1" xmlns="http://www.w3.org/2000/svg" width="512" height="512">
<path d="M0 0 C1.51671886 1.26424817 3.0593383 2.49722026 4.60253906 3.72900391 C19.28864031 15.68237492 33.1902857 29.28168978 44.33349609 44.62451172 C45.62066708 46.38127784 46.9453607 48.10442915 48.27832031 49.82666016 C72.45591287 81.38831197 88.32687017 120.12752123 94.56347656 159.30322266 C94.72428711 160.30675781 94.88509766 161.31029297 95.05078125 162.34423828 C99.15307909 189.19102865 98.85784384 216.50430539 94.56347656 243.30322266 C94.40782227 244.28097656 94.25216797 245.25873047 94.09179688 246.26611328 C83.83070262 307.66882901 48.55341729 366.91574741 -1.70214844 404.01318359 C-3.45613547 405.31781021 -5.18141301 406.65442649 -6.90527344 407.99853516 C-58.49573872 447.71022316 -126.64664264 463.36497081 -190.72607422 455.71557617 C-232.1290536 450.25493496 -271.20213463 435.19680584 -305.43652344 411.30322266 C-306.15565918 410.80177734 -306.87479492 410.30033203 -307.61572266 409.78369141 C-318.02591578 402.43816999 -327.32460976 394.18751632 -336.43652344 385.30322266 C-337.07509277 384.69043457 -337.71366211 384.07764648 -338.37158203 383.44628906 C-346.67181637 375.47831329 -354.27219981 367.3099454 -361.12597656 358.0625 C-362.45449434 356.27909852 -363.81012381 354.5191275 -365.17089844 352.76025391 C-404.6647793 301.10368044 -421.02435224 232.73318877 -412.84033203 168.60058594 C-412.40469949 165.49544331 -411.93264328 162.39924907 -411.43652344 159.30322266 C-411.28086914 158.32546875 -411.12521484 157.34771484 -410.96484375 156.34033203 C-402.66879853 106.69653249 -378.42754956 60.28925426 -343.43652344 24.30322266 C-342.82550781 23.66642578 -342.21449219 23.02962891 -341.58496094 22.37353516 C-333.27930111 13.73697254 -324.82481479 5.71874882 -315.1796875 -1.40234375 C-313.40167473 -2.7226552 -311.64898673 -4.07204745 -309.89746094 -5.42724609 C-231.90738178 -65.10203185 -121.53510399 -69.85830349 0 0 Z " fill="#F34235" transform="translate(414.4365234375,54.69677734375)"/>
<path d="M0 0 C1.11012451 -0.01139008 2.22024902 -0.02278015 3.36401367 -0.03451538 C13.52757519 -0.13153573 23.6917362 -0.18334543 33.85568333 -0.22020721 C41.35244149 -0.24781591 48.84825795 -0.29873674 56.3446241 -0.38068151 C62.27606822 -0.44330498 68.20730664 -0.46743698 74.13908195 -0.47846985 C76.6529007 -0.48886828 79.16670011 -0.51128692 81.68029976 -0.54606628 C85.19648373 -0.59223832 88.71014287 -0.59427661 92.2265625 -0.5859375 C93.25899582 -0.60953339 94.29142914 -0.63312927 95.35514832 -0.65744019 C101.76270428 -0.58399751 105.0914404 0.60416124 109.6239481 5.16166496 C110.57664286 6.18282245 110.57664286 6.18282245 111.54858398 7.22460938 C112.95256445 8.5918471 114.35940866 9.95614896 115.76878357 11.31782532 C117.29353302 12.83671046 118.81561823 14.35827342 120.33544922 15.88208008 C121.5930027 17.13700508 121.5930027 17.13700508 122.8759613 18.4172821 C125.62220616 21.15915637 128.36481363 23.90463534 131.10717773 26.65039062 C133.02111793 28.56410776 134.93565649 30.47722596 136.85011292 32.39042664 C140.8486504 36.38715232 144.84509106 40.38596555 148.84033203 44.38598633 C153.46013385 49.01125126 158.08355719 53.63287269 162.70883411 58.252662 C166.68873787 62.228033 170.66669632 66.20534267 174.64302403 70.18429059 C177.01449116 72.55731672 179.38662893 74.92966186 181.76052666 77.30025673 C184.39859919 79.9358024 187.0334666 82.57451022 189.66748047 85.21411133 C190.84948029 86.3930748 190.84948029 86.3930748 192.05535889 87.59585571 C193.12550484 88.6702314 193.12550484 88.6702314 194.2172699 89.76631165 C194.84015113 90.3895699 195.46303236 91.01282816 196.10478878 91.65497303 C199.05666139 94.86413076 198.68095121 97.54025642 198.695755 101.79112244 C198.69943169 102.47362944 198.70310838 103.15613644 198.70689648 103.85932547 C198.71795379 106.15809624 198.72178086 108.45682182 198.72558594 110.75561523 C198.73184983 112.39993941 198.73849656 114.04426217 198.74549866 115.68858337 C198.76657786 121.10552987 198.77691536 126.52247673 198.78686523 131.93945312 C198.79091355 133.8081266 198.79503049 135.67679993 198.79921532 137.5454731 C198.81828776 146.33889428 198.83250565 155.13230705 198.84082729 163.92574495 C198.85056065 174.04263502 198.87676866 184.159304 198.91732818 194.27611631 C198.94765025 202.1116347 198.96231192 209.94709041 198.9656083 217.78266627 C198.96794362 222.45306451 198.97670136 227.1232272 199.00206947 231.79356194 C199.02563328 236.20378913 199.02947193 240.61363058 199.01930809 245.0239048 C199.01881915 246.62688365 199.02494549 248.22988332 199.03886414 249.83280182 C199.27542266 278.73808932 189.37689917 303.66072006 169.42358398 324.72460938 C150.00799166 343.54177591 124.92750575 352.58454811 98.06396484 352.48339844 C96.30512718 352.4886554 96.30512718 352.4886554 94.51075745 352.49401855 C90.67825196 352.50274013 86.84593473 352.49702109 83.01342773 352.49023438 C80.32548295 352.49158368 77.63754363 352.49352404 74.94960022 352.49603271 C69.3340556 352.4996537 63.7185639 352.49492215 58.10302734 352.48535156 C51.64152825 352.47446529 45.1801554 352.47800138 38.71865934 352.48900437 C33.13607939 352.4981245 27.5535371 352.49933973 21.97095209 352.49412704 C18.65191001 352.49103383 15.33293914 352.49132776 12.01389885 352.49720001 C8.31045031 352.50231605 4.60723956 352.49448412 0.90380859 352.48339844 C-0.17341461 352.4874469 -1.25063782 352.49149536 -2.36050415 352.4956665 C-28.34647773 352.35258249 -53.35730611 341.52188376 -71.82641602 323.28710938 C-89.18676077 305.50558659 -99.09807964 281.99505918 -99.88891602 257.22460938 C-99.92887695 256.00773438 -99.96883789 254.79085937 -100.01000977 253.53710938 C-99.29250859 249.2822772 -97.80691865 247.84959619 -94.45141602 245.22460938 C-90.95141602 244.53710938 -90.95141602 244.53710938 -87.45141602 245.22460938 C-84.60931627 247.3252918 -83.75792727 248.08012467 -82.45141602 251.22460938 C-81.98004882 254.68130213 -81.81695919 258.0867766 -81.67797852 261.57226562 C-80.46009377 281.20540759 -69.96248145 300.24646363 -55.92016602 313.63867188 C-45.78639877 322.31198443 -34.40069067 328.83193301 -21.45141602 332.22460938 C-20.54115079 332.47425918 -20.54115079 332.47425918 -19.61249638 332.72895241 C-13.17516194 334.34721434 -7.00724438 334.52062372 -0.39257812 334.51513672 C0.78272461 334.52185394 1.95802734 334.52857117 3.16894531 334.53549194 C7.03642055 334.55441545 10.90372163 334.55839373 14.77124023 334.56054688 C16.11344414 334.56339777 17.45564736 334.56659048 18.79784966 334.57011795 C25.83188454 334.58858359 32.86584403 334.59679355 39.89990234 334.59521484 C46.41359377 334.59401666 52.92695214 334.61506396 59.44055945 334.64670217 C65.06643769 334.67303551 70.69220836 334.68357496 76.3181476 334.68230402 C79.66324591 334.68179905 83.00781488 334.68911946 86.35289192 334.70866013 C110.80701999 334.83810656 131.93410637 332.22589374 151.54858398 316.22460938 C152.34006836 315.59683594 153.13155273 314.9690625 153.94702148 314.32226562 C168.72266979 301.99241576 177.83481361 283.11976516 180.54858398 264.22460938 C180.64533048 261.9988019 180.69432627 259.77062926 180.70680237 257.54275513 C180.71420933 256.57338872 180.71420933 256.57338872 180.72176594 255.58443916 C180.73704251 253.43341108 180.74547463 251.28241261 180.75390625 249.13134766 C180.76349253 247.58368167 180.77350305 246.03601826 180.78390503 244.48835754 C180.81087893 240.2967143 180.83192905 236.10505988 180.85190701 231.91337824 C180.87381306 227.52913548 180.9011791 223.14492686 180.92796326 218.76071167 C180.97782779 210.46296906 181.02278971 202.16520742 181.06598562 193.86742771 C181.11541139 184.41883637 181.17030968 174.9702793 181.22566521 165.52172112 C181.33938946 146.08938238 181.44624923 126.65701127 181.54858398 107.22460938 C180.27853516 107.24031982 179.00848633 107.25603027 177.69995117 107.2722168 C172.93634517 107.32698693 168.17276634 107.36112895 163.40893555 107.3894043 C161.35680442 107.40438453 159.30470471 107.42477584 157.25268555 107.45092773 C137.3585638 107.69790928 121.93764821 105.97270679 106.83374023 91.63476562 C95.71402409 79.90679151 91.36293714 66.89369896 91.45092773 51.01367188 C91.45305016 49.56146744 91.45305016 49.56146744 91.45521545 48.07992554 C91.46079033 45.00312138 91.47333821 41.92639135 91.48608398 38.84960938 C91.49110223 36.75716251 91.49566457 34.6647145 91.49975586 32.57226562 C91.51075154 27.45635187 91.52799884 22.34049317 91.54858398 17.22460938 C78.2648335 17.2628199 64.98136149 17.32240363 51.6978302 17.40851212 C45.52827972 17.44785002 39.35886906 17.48010536 33.18920898 17.49560547 C27.22380316 17.5108625 21.25878208 17.54546714 15.29354858 17.5929184 C13.02928023 17.60763941 10.76495692 17.61564499 8.50064087 17.61649323 C-7.25319718 17.62831889 -22.41176756 18.23443697 -36.63891602 25.84960938 C-37.29053711 26.18806885 -37.9421582 26.52652832 -38.61352539 26.87524414 C-57.9989058 37.31116643 -71.84428477 54.10765108 -78.85924339 75.02224731 C-81.4172064 84.5356231 -81.74021358 94.22436755 -81.70678711 104.01367188 C-81.71234396 106.02524297 -81.71790515 108.03681405 -81.72363114 110.04838467 C-81.72793409 112.18151217 -81.7275116 114.31459272 -81.725811 116.44772339 C-81.72294988 120.91125833 -81.73742885 125.37463866 -81.75479126 129.83813477 C-81.80156707 142.51983398 -81.82578079 155.20151892 -81.83227539 167.88330078 C-81.83602553 174.91009645 -81.85403714 181.93671332 -81.88736975 188.96343231 C-81.90755423 193.39870735 -81.90997084 197.83352051 -81.89908957 202.26882267 C-81.89587081 205.66955346 -81.91856812 209.07002391 -81.93725586 212.47070312 C-81.9290834 213.69465286 -81.92091095 214.9186026 -81.91249084 216.17964172 C-81.99357542 224.44808336 -81.99357542 224.44808336 -84.35855103 228.45922852 C-86.85852968 230.56801933 -88.00755927 231.16542848 -91.26391602 231.59960938 C-94.57951678 231.2095387 -96.13337679 230.57339963 -98.41023445 228.12838745 C-100.85806346 223.6525848 -100.10906444 218.05930838 -100.05078125 213.10351562 C-100.05264628 211.75442555 -100.05668501 210.40533699 -100.06272888 209.05625916 C-100.07270051 205.3964123 -100.051531 201.73734063 -100.02424884 198.0776062 C-100.00036715 194.2359979 -100.00336327 190.39440368 -100.00294495 186.55273438 C-99.9983161 180.09312901 -99.9746837 173.63381821 -99.93847656 167.17431641 C-99.89688388 159.73483505 -99.87916982 152.29561957 -99.87585682 144.85602856 C-99.87223671 136.90814902 -99.85331921 128.96036355 -99.82873654 121.01252365 C-99.8225458 118.73785106 -99.81888547 116.46318567 -99.81570244 114.18850708 C-99.80973513 110.59003186 -99.79324115 106.99174063 -99.76909828 103.39334297 C-99.75828325 101.46480413 -99.75682782 99.53621965 -99.75579834 97.60765076 C-99.65970211 86.2379774 -98.41404401 75.38143406 -94.32641602 64.72460938 C-94.02147217 63.91709229 -93.71652832 63.1095752 -93.40234375 62.27758789 C-83.67056445 37.45575062 -64.04738485 18.44006591 -40.02050781 7.4987793 C-26.79262883 1.77716231 -14.23205823 0.1022373 0 0 Z " fill="#FEFDFD" transform="translate(206.451416015625,79.775390625)"/>
<path d="M0 0 C0.70167801 -0.00241196 1.40335602 -0.00482391 2.126297 -0.00730896 C3.60809996 -0.00633254 5.08994032 0.00701266 6.5715332 0.03198242 C8.80875793 0.06605183 11.04197095 0.05269676 13.27929688 0.03320312 C25.06887338 0.04372564 33.90341505 2.07146831 42.6640625 10.3359375 C50.12789575 18.97749592 50.88043924 28.11230686 50.93969727 39.03271484 C50.95117019 40.5028652 50.97154737 41.97297545 51.0012207 43.44287109 C51.17120693 51.87000976 51.20595242 59.2159281 46.64453125 66.62890625 C45.97550781 67.82580078 45.97550781 67.82580078 45.29296875 69.046875 C40.42519852 75.81098517 33.49952142 79.98924283 25.64453125 82.62890625 C23.09746584 82.85076682 20.66060292 82.97992112 18.11328125 83 C17.39974487 83.00902847 16.6862085 83.01805695 15.9510498 83.02735901 C14.44836594 83.04181105 12.94561988 83.05073565 11.44287109 83.05444336 C9.15094091 83.06637289 6.86167793 83.11562623 4.5703125 83.16601562 C3.1054818 83.17547771 1.64063469 83.18271378 0.17578125 83.1875 C-0.50456177 83.20703232 -1.18490479 83.22656464 -1.88586426 83.24668884 C-5.47611925 83.21281481 -7.18375758 82.76309184 -10.03488159 80.53504944 C-12.9160604 76.92685996 -12.98791296 75.10708422 -13.00244141 70.53125 C-13.011203 69.83629425 -13.0199646 69.1413385 -13.0289917 68.42532349 C-13.0509182 66.13837413 -13.03645975 63.85337369 -13.01953125 61.56640625 C-13.0229014 59.97126903 -13.02775567 58.37613431 -13.0340271 56.78100586 C-13.04138918 53.44197073 -13.03071526 50.10360553 -13.00732422 46.76464844 C-12.97883573 42.49035825 -12.99524343 38.21763778 -13.02518654 33.94340515 C-13.04327814 30.65071849 -13.03749319 27.35840234 -13.02454758 24.06570435 C-13.02121866 22.49007988 -13.02528261 20.91442148 -13.03694534 19.33883667 C-13.0496862 17.13384271 -13.03023832 14.93136925 -13.00244141 12.7265625 C-12.99846344 11.47367432 -12.99448547 10.22078613 -12.99038696 8.92993164 C-11.57640185 1.57843238 -6.85806802 -0.00384684 0 0 Z " fill="#FEFDFC" transform="translate(241.35546875,234.37109375)"/>
<path d="M0 0 C0.7771637 0.01841949 1.55432739 0.03683899 2.3550415 0.05581665 C3.17007141 0.05481964 3.98510132 0.05382263 4.8248291 0.05279541 C6.54626226 0.05746528 8.26771049 0.07685549 9.98883057 0.11001587 C12.59915007 0.15699193 15.205347 0.15116242 17.815979 0.1378479 C28.16710748 0.17367118 35.40039961 1.10046874 44.1206665 6.96987915 C49.76904262 12.74662745 52.17721905 17.60088626 52.4331665 25.78237915 C52.05610157 34.54913894 50.04123485 40.00666459 43.7456665 46.15737915 C36.35579497 52.93375192 26.76529951 53.21772006 17.2456665 52.96987915 C16.24148682 52.95634399 15.23730713 52.94280884 14.20269775 52.92886353 C11.75809786 52.89394067 9.31468917 52.84490663 6.8706665 52.78237915 C6.89161377 53.44769653 6.91256104 54.11301392 6.93414307 54.79849243 C7.01767259 57.83463217 7.06944254 60.87052958 7.1206665 63.90737915 C7.15418213 64.9540979 7.18769775 66.00081665 7.222229 67.07925415 C7.30095499 73.2986069 7.13094133 77.09607684 2.8706665 81.78237915 C0.01742213 83.20900134 -1.96387899 83.09271783 -5.1293335 82.78237915 C-7.82924011 80.98244141 -9.67122 79.69860615 -11.1293335 76.78237915 C-11.24693706 74.59872607 -11.29917287 72.41145831 -11.32220459 70.22476196 C-11.33038208 69.55135773 -11.33855957 68.87795349 -11.34698486 68.18414307 C-11.37183509 65.95127246 -11.38835552 63.71846551 -11.402771 61.48550415 C-11.40809467 60.72254784 -11.41341835 59.95959152 -11.41890335 59.17351532 C-11.44563585 55.13364161 -11.46500866 51.09379878 -11.47943115 47.05386353 C-11.49606182 42.88625905 -11.54082485 38.71944802 -11.5918026 34.5521431 C-11.62550662 31.34358848 -11.63701204 28.13522127 -11.64265823 24.92650604 C-11.64936419 23.39072368 -11.66456944 21.85495336 -11.68854904 20.31934357 C-11.72026909 18.16476937 -11.72022863 16.01232208 -11.71282959 13.85757446 C-11.72091644 12.63338806 -11.7290033 11.40920166 -11.73733521 10.1479187 C-10.54458036 3.54553001 -6.93562053 0.11813724 0 0 Z " fill="#FEFAFA" transform="translate(164.12933349609375,234.21762084960938)"/>
<path d="M0 0 C0.82435547 -0.0157608 1.64871094 -0.03152161 2.49804688 -0.04776001 C3.81385742 -0.03257828 3.81385742 -0.03257828 5.15625 -0.01708984 C6.06955078 -0.02187347 6.98285156 -0.0266571 7.92382812 -0.03158569 C9.85027799 -0.03498052 11.77678579 -0.02580729 13.703125 -0.00488281 C16.64714348 0.02188984 19.5873497 -0.00464357 22.53125 -0.03662109 C24.40625839 -0.03331692 26.28126442 -0.02691053 28.15625 -0.01708984 C29.03345703 -0.027211 29.91066406 -0.03733215 30.81445312 -0.04776001 C35.23913624 0.03683524 37.10621199 0.22542283 40.72265625 2.99707031 C43.07633232 6.22267638 43.23877527 7.73573157 42.65625 11.64697266 C41.81611899 14.16736568 41.21496712 15.27707361 38.99902344 16.74414062 C35.87907648 17.94647116 33.26240772 17.87158807 29.921875 17.84228516 C28.62636719 17.83583984 27.33085937 17.82939453 25.99609375 17.82275391 C24.63280981 17.80604459 23.26952856 17.78911471 21.90625 17.77197266 C20.52735015 17.76193605 19.14844335 17.75281139 17.76953125 17.74462891 C14.39836277 17.7210543 11.02728436 17.68518337 7.65625 17.64697266 C7.65625 22.59697266 7.65625 27.54697266 7.65625 32.64697266 C9.76386719 32.58896484 11.87148438 32.53095703 14.04296875 32.47119141 C16.09493247 32.43214523 18.14685407 32.4018159 20.19897461 32.37231445 C21.62006291 32.34724118 23.04102313 32.31317267 24.46166992 32.26977539 C26.50992462 32.20879408 28.55646883 32.18069504 30.60546875 32.15869141 C31.83612061 32.13250732 33.06677246 32.10632324 34.3347168 32.0793457 C38.57983464 32.80480686 40.02535335 34.30951512 42.65625 37.64697266 C43.4008824 41.61834546 43.02891878 43.08796949 40.78125 46.45947266 C38.20572707 49.11074626 37.45621043 49.61553936 33.76708984 49.76049805 C32.56262207 49.75526123 31.3581543 49.75002441 30.1171875 49.74462891 C28.81523437 49.74140625 27.51328125 49.73818359 26.171875 49.73486328 C24.79166601 49.72650732 23.41145768 49.71804236 22.03125 49.70947266 C20.64323074 49.70445767 19.25520978 49.69989476 17.8671875 49.69580078 C14.46349868 49.68398242 11.05989561 49.66750699 7.65625 49.64697266 C7.67719727 50.43869873 7.69814453 51.2304248 7.71972656 52.04614258 C7.80300467 55.64212283 7.85494891 59.23790001 7.90625 62.83447266 C7.95652344 64.70329102 7.95652344 64.70329102 8.0078125 66.60986328 C8.02070313 67.81191406 8.03359375 69.01396484 8.046875 70.25244141 C8.06782227 71.35740967 8.08876953 72.46237793 8.11035156 73.60083008 C7.5529709 77.33977549 6.2623442 78.96364066 3.65625 81.64697266 C0.76763291 83.0912812 -1.14022701 83.02385771 -4.34375 82.64697266 C-7.67084282 80.04435302 -9.17143136 78.54288049 -9.97866821 74.34594727 C-9.98264618 73.09305908 -9.98662415 71.8401709 -9.99072266 70.54931641 C-9.99948425 69.85436066 -10.00824585 69.15940491 -10.01727295 68.44338989 C-10.03919945 66.15644054 -10.024741 63.87144009 -10.0078125 61.58447266 C-10.01118265 59.98933543 -10.01603692 58.39420072 -10.02230835 56.79907227 C-10.02967043 53.46003714 -10.01899651 50.12167193 -9.99560547 46.78271484 C-9.96711698 42.50842465 -9.98352468 38.23570418 -10.01346779 33.96147156 C-10.03155939 30.66878489 -10.02577444 27.37646874 -10.01282883 24.08377075 C-10.00949991 22.50814629 -10.01356386 20.93248789 -10.02522659 19.35690308 C-10.03796745 17.15190911 -10.01851957 14.94943566 -9.99072266 12.74462891 C-9.98674469 11.49174072 -9.98276672 10.23885254 -9.97866821 8.94799805 C-8.93864458 3.54077495 -5.64988643 0.0312179 0 0 Z " fill="#FEFEFE" transform="translate(316.34375,234.35302734375)"/>
<path d="M0 0 C18 0 18 0 25 4 C29.91593639 10.04731883 29.57400749 16.00174668 29.4375 23.5625 C29.44458984 24.67302734 29.45167969 25.78355469 29.45898438 26.92773438 C29.40774024 33.51457661 29.13209834 38.56611094 24.5 43.64453125 C16.00319469 50.2605333 13.37967012 48 0 48 C0 32.16 0 16.32 0 0 Z " fill="#F34437" transform="translate(246,252)"/>
<path d="M0 0 C3.58353441 -0.05393279 7.16625756 -0.09364225 10.75 -0.125 C11.76578125 -0.14175781 12.7815625 -0.15851563 13.828125 -0.17578125 C14.8078125 -0.18222656 15.7875 -0.18867188 16.796875 -0.1953125 C17.69760742 -0.20578613 18.59833984 -0.21625977 19.52636719 -0.22705078 C22.2065424 0.01895819 23.75413695 0.53342584 26 2 C28.50031654 5.75047482 28.53603554 7.55856266 28 12 C26.2109375 14.70703125 26.2109375 14.70703125 23 17 C19.04497133 17.61384753 15.17754545 17.47093186 11.1875 17.3125 C10.11306641 17.28994141 9.03863281 17.26738281 7.93164062 17.24414062 C5.28716112 17.18537441 2.64340067 17.09569833 0 17 C0 11.39 0 5.78 0 0 Z " fill="#F34336" transform="translate(171,252)"/>
</svg>
